<svg width="21" height="20" viewBox="0 0 21 20" fill="none" xmlns="http://www.w3.org/2000/svg">
<path fill-rule="evenodd" clip-rule="evenodd" d="M13.3932 4.99967C14.0101 4.99967 14.5487 4.66451 14.8369 4.16634H16.7266C17.1868 4.16634 17.5599 4.53944 17.5599 4.99967V6.77136C16.1222 7.14139 15.0599 8.44651 15.0599 9.99967C15.0599 11.5528 16.1222 12.8579 17.5599 13.228V14.9997C17.5599 15.4599 17.1868 15.833 16.7266 15.833H14.8369C14.5487 15.3348 14.0101 14.9997 13.3932 14.9997C12.7763 14.9997 12.2377 15.3348 11.9496 15.833H3.39323C2.933 15.833 2.5599 15.4599 2.5599 14.9997V13.228C3.99759 12.8579 5.0599 11.5528 5.0599 9.99967C5.0599 8.44651 3.99759 7.14139 2.5599 6.77136V4.99967C2.5599 4.53944 2.933 4.16634 3.39323 4.16634H11.9496C12.2377 4.66451 12.7763 4.99967 13.3932 4.99967ZM15.8932 9.99967C15.8932 8.61892 17.0125 7.49967 18.3932 7.49967V4.99967C18.3932 4.0792 17.6471 3.33301 16.7266 3.33301H14.2266C14.2266 3.79324 13.8535 4.16634 13.3932 4.16634C12.933 4.16634 12.5599 3.79324 12.5599 3.33301H3.39323C2.47275 3.33301 1.72656 4.0792 1.72656 4.99967V7.49967C3.10727 7.49967 4.22656 8.61892 4.22656 9.99967C4.22656 11.3804 3.10727 12.4997 1.72656 12.4997V14.9997C1.72656 15.9202 2.47275 16.6663 3.39323 16.6663H12.5599C12.5599 16.2061 12.933 15.833 13.3932 15.833C13.8535 15.833 14.2266 16.2061 14.2266 16.6663H16.7266C17.6471 16.6663 18.3932 15.9202 18.3932 14.9997V12.4997C17.0125 12.4997 15.8932 11.3804 15.8932 9.99967ZM13.3932 7.49967C13.8535 7.49967 14.2266 7.12658 14.2266 6.66634C14.2266 6.20611 13.8535 5.83301 13.3932 5.83301C12.933 5.83301 12.5599 6.20611 12.5599 6.66634C12.5599 7.12658 12.933 7.49967 13.3932 7.49967ZM13.3932 10.833C13.8535 10.833 14.2266 10.4599 14.2266 9.99967C14.2266 9.53942 13.8535 9.16634 13.3932 9.16634C12.933 9.16634 12.5599 9.53942 12.5599 9.99967C12.5599 10.4599 12.933 10.833 13.3932 10.833ZM14.2266 13.333C14.2266 13.7933 13.8535 14.1663 13.3932 14.1663C12.933 14.1663 12.5599 13.7933 12.5599 13.333C12.5599 12.8728 12.933 12.4997 13.3932 12.4997C13.8535 12.4997 14.2266 12.8728 14.2266 13.333Z" fill="#707070"/>
</svg>
